HIERARCHY
ROOT Hips
{
	OFFSET 0.000000 0.000000 0.000000
	CHANNELS 6 Xposition Yposition Zposition Xrotation Yrotation Zrotation
	JOINT LeftUpLeg_virtual
	{
		OFFSET 0.000000 0.000000 0.000000
		CHANNELS 3 Xrotation Yrotation Zrotation
		JOINT LeftUpLeg
		{
			OFFSET 15.427100 -6.655098 0.678600
			CHANNELS 3 Xrotation Yrotation Zrotation
			JOINT LeftLeg
			{
				OFFSET 4.081073 -39.591068 13.024000
				CHANNELS 3 Xrotation Yrotation Zrotation
				JOINT LeftFoot
				{
					OFFSET -4.081074 -37.707932 -15.979700
					CHANNELS 3 Xrotation Yrotation Zrotation
					JOINT LeftToeBase
					{
						OFFSET 5.346399 -15.068900 20.645000
						CHANNELS 3 Xrotation Yrotation Zrotation
						JOINT LeftToe_End
						{
							OFFSET 2.754700 0.931300 11.300900
							CHANNELS 3 Xrotation Yrotation Zrotation
							End Site
							{
								OFFSET 0 0 0
							}
						}
					}
				}
			}
		}
	}
	JOINT RightUpLeg_virtual
	{
		OFFSET 0.000000 0.000000 0.000000
		CHANNELS 3 Xrotation Yrotation Zrotation
		JOINT RightUpLeg
		{
			OFFSET -15.569500 -6.655098 0.678600
			CHANNELS 3 Xrotation Yrotation Zrotation
			JOINT RightLeg
			{
				OFFSET -4.081825 -39.591045 13.023800
				CHANNELS 3 Xrotation Yrotation Zrotation
				JOINT RightFoot
				{
					OFFSET 4.081824 -37.707954 -15.979600
					CHANNELS 3 Xrotation Yrotation Zrotation
					JOINT RightToeBase
					{
						OFFSET -5.346400 -15.068900 20.645000
						CHANNELS 3 Xrotation Yrotation Zrotation
						JOINT RightToe_End
						{
							OFFSET -2.754700 0.931300 11.300900
							CHANNELS 3 Xrotation Yrotation Zrotation
							End Site
							{
								OFFSET 0 0 0
							}
						}
					}
				}
			}
		}
	}
	JOINT Spine_virtual
	{
		OFFSET 0.000000 0.000000 0.000000
		CHANNELS 3 Xrotation Yrotation Zrotation
		JOINT Spine
		{
			OFFSET -0.279200 12.230698 -2.892100
			CHANNELS 3 Xrotation Yrotation Zrotation
			JOINT Spine1
			{
				OFFSET -0.232667 10.192268 -1.242267
				CHANNELS 3 Xrotation Yrotation Zrotation
				JOINT Spine1_split
				{
					OFFSET -0.232667 10.192268 -1.242267
					CHANNELS 3 Xrotation Yrotation Zrotation
					JOINT Spine2
					{
						OFFSET -0.232667 10.192268 -1.242267
						CHANNELS 3 Xrotation Yrotation Zrotation
						JOINT Neck_virtual
						{
							OFFSET 0.000000 0.000000 0.000000
							CHANNELS 3 Xrotation Yrotation Zrotation
							JOINT Neck
							{
								OFFSET -0.418800 17.814194 8.416900
								CHANNELS 3 Xrotation Yrotation Zrotation
								JOINT Head
								{
									OFFSET 0.000000 7.031097 3.806800
									CHANNELS 3 Xrotation Yrotation Zrotation
									JOINT HeadTop_End
									{
										OFFSET 0.000000 24.646606 12.978600
										CHANNELS 3 Xrotation Yrotation Zrotation
										End Site
										{
											OFFSET 0 0 0
										}
									}
								}
							}
						}
						JOINT LeftShoulder_virtual
						{
							OFFSET 0.000000 0.000000 0.000000
							CHANNELS 3 Xrotation Yrotation Zrotation
							JOINT LeftShoulder
							{
								OFFSET 8.476499 7.247704 -3.868750
								CHANNELS 3 Xrotation Yrotation Zrotation
								JOINT LeftShoulder_split
								{
									OFFSET 8.476499 7.247704 -3.868750
									CHANNELS 3 Xrotation Yrotation Zrotation
									JOINT LeftArm
									{
										OFFSET 9.308998 -2.777710 0.208600
										CHANNELS 3 Xrotation Yrotation Zrotation
										JOINT LeftForeArm
										{
											OFFSET 29.972298 0.000000 0.000000
											CHANNELS 3 Xrotation Yrotation Zrotation
											JOINT LeftHand
											{
												OFFSET 26.026505 0.000000 0.000000
												CHANNELS 3 Xrotation Yrotation Zrotation
												End Site
												{
													OFFSET 0 0 0
												}
											}
										}
									}
								}
							}
						}
						JOINT RightShoulder_virtual
						{
							OFFSET 0.000000 0.000000 0.000000
							CHANNELS 3 Xrotation Yrotation Zrotation
							JOINT RightShoulder
							{
								OFFSET -7.570500 7.247704 -3.868750
								CHANNELS 3 Xrotation Yrotation Zrotation
								JOINT RightShoulder_split
								{
									OFFSET -7.570500 7.247704 -3.868750
									CHANNELS 3 Xrotation Yrotation Zrotation
									JOINT RightArm
									{
										OFFSET -9.308998 -2.777710 0.208500
										CHANNELS 3 Xrotation Yrotation Zrotation
										JOINT RightForeArm
										{
											OFFSET -29.972300 0.000000 0.000000
											CHANNELS 3 Xrotation Yrotation Zrotation
											JOINT RightHand
											{
												OFFSET -26.026505 0.000000 0.000000
												CHANNELS 3 Xrotation Yrotation Zrotation
												End Site
												{
													OFFSET 0 0 0
												}
											}
										}
									}
								}
							}
						}
					}
				}
			}
		}
	}
}
MOTION
Frames: 9
Frame Time: 0.03333333
4.085584 42.471535 -18.650696 0.000000 0.000000 0.000000 32.734867 -4.106831 2.926619 -99.439215 -16.537691 35.794023 116.237389 -7.681933 -6.540543 -19.403394 -18.787260 -10.641874 -26.065445 0.349100 -0.333217 0.000000 0.000000 0.000000 32.734867 -4.106831 2.926619 -86.971606 -18.287799 -11.706569 121.020925 9.682793 -2.980511 -41.544673 8.044044 -21.090699 -36.165551 -0.659204 -0.284611 0.000000 0.000000 0.000000 32.734867 -4.106831 2.926619 11.789110 0.743362 -2.691714 23.586996 0.789779 -4.769931 0.000000 0.000000 0.000000 0.000000 0.000000 0.000000 23.586993 0.789780 -4.769936 -29.338688 -1.850910 0.313088 -30.067814 -3.949116 3.336537 0.000000 0.000000 0.000000 23.586993 0.789780 -4.769936 1.031240 -3.894730 -0.100350 0.000000 0.000000 0.000000 -14.880885 -30.286613 -15.640406 -170.229665 -79.136354 -171.803805 0.000000 0.000000 0.000000 23.586993 0.789780 -4.769936 6.339589 30.022250 7.914819 0.000000 0.000000 0.000000 -33.565114 7.668063 20.375899 13.935084 70.606302 -24.882907 0.000000 0.000000 0.000000 
4.809731 38.459991 -21.497635 0.000000 0.000000 0.000000 35.833703 0.347303 2.190023 -70.102890 -16.260954 51.399424 113.100522 -23.027612 -13.751100 -43.061269 -12.437535 -19.651395 -29.804063 0.525333 -1.193149 0.000000 0.000000 0.000000 35.833703 0.347303 2.190023 -100.854266 -5.019681 -13.690616 126.741632 11.225012 0.754315 -35.064566 2.446942 -13.390338 -40.777315 -0.185480 -1.536665 0.000000 0.000000 0.000000 35.833703 0.347303 2.190023 11.083911 -0.219217 -1.993343 22.176811 0.436127 -4.312043 0.000000 0.000000 0.000000 0.000000 0.000000 0.000000 22.176810 0.436130 -4.312044 -24.273809 -2.101650 -0.458652 -32.969897 -5.781657 3.191220 0.000000 0.000000 0.000000 22.176810 0.436130 -4.312044 0.640944 -3.294367 -0.953793 0.000000 0.000000 0.000000 -15.835078 -34.689967 -16.373895 -175.418956 -77.914727 -177.240212 0.000000 0.000000 0.000000 22.176810 0.436130 -4.312044 5.833062 29.728012 10.839905 0.000000 0.000000 0.000000 -38.904351 17.802009 21.911295 10.180150 60.700356 -18.967883 0.000000 0.000000 0.000000 
5.087533 35.207687 -22.806076 0.000000 0.000000 0.000000 38.484216 3.965424 1.272840 -59.276323 -15.055853 60.415694 108.405183 -31.650519 -18.802191 -49.236901 -11.674161 -22.647055 -31.475561 0.137943 -1.640728 0.000000 0.000000 0.000000 38.484216 3.965424 1.272840 -110.011555 11.227809 -18.352293 129.301109 19.440325 6.260111 -28.012665 -0.129794 -7.672866 -41.656193 0.256754 -2.698144 0.000000 0.000000 0.000000 38.484216 3.965424 1.272840 9.886176 -0.930413 -1.112730 19.767500 0.228246 -3.621572 0.000000 0.000000 0.000000 0.000000 0.000000 0.000000 19.767515 0.228246 -3.621572 -19.301415 -2.327293 -1.169200 -35.559737 -7.352561 3.025417 0.000000 0.000000 0.000000 19.767515 0.228246 -3.621572 0.020298 -2.572768 -2.855807 0.000000 0.000000 0.000000 -17.018347 -39.190478 -20.988073 -179.017264 -82.074914 178.026599 0.000000 0.000000 0.000000 19.767515 0.228246 -3.621572 5.824600 28.867795 13.884154 0.000000 0.000000 0.000000 -39.853095 20.536065 22.693070 6.574744 55.607726 -13.152772 0.000000 0.000000 0.000000 
5.211473 33.019661 -22.622849 0.000000 0.000000 0.000000 40.559822 6.110844 0.715243 -59.905779 -20.137105 66.549661 107.639471 -35.933345 -22.783435 -46.293759 -14.891038 -23.542498 -31.341013 -0.568537 -1.715162 0.000000 0.000000 0.000000 40.559822 6.110844 0.715243 -103.423913 26.754939 -35.095243 124.418016 37.475192 18.362410 -26.321439 2.148049 -10.292555 -39.831317 -0.480509 -2.159658 0.000000 0.000000 0.000000 40.559822 6.110844 0.715243 8.553483 -0.972120 -0.592810 17.095385 0.064673 -2.736922 0.000000 0.000000 0.000000 0.000000 0.000000 0.000000 17.095419 0.064674 -2.736920 -15.016707 -2.509811 -1.755170 -37.648310 -8.578238 2.868691 0.000000 0.000000 0.000000 17.095419 0.064674 -2.736920 -0.567131 -1.709442 -5.503912 0.000000 0.000000 0.000000 -18.354340 -41.817218 -27.529778 178.363369 -88.744306 174.476049 0.000000 0.000000 0.000000 17.095419 0.064674 -2.736920 6.177823 28.203601 16.491186 0.000000 0.000000 0.000000 -38.931494 21.004809 21.886964 4.302048 53.106155 -8.182252 0.000000 0.000000 0.000000 
5.290479 31.813286 -22.700417 0.000000 0.000000 0.000000 41.903381 7.405229 0.333331 -58.709178 -23.276375 72.060203 106.309005 -38.200889 -26.020765 -44.318236 -17.470507 -25.543786 -31.336389 -0.890416 -1.774845 0.000000 0.000000 0.000000 41.903381 7.405229 0.333331 -97.007387 36.048226 -50.559922 116.136001 49.000023 30.170667 -21.493212 2.528377 -11.039931 -37.797150 -0.259229 -1.462144 0.000000 0.000000 0.000000 41.903381 7.405229 0.333331 7.524562 -0.924634 -0.244892 15.035789 0.007293 -2.112022 0.000000 0.000000 0.000000 0.000000 0.000000 0.000000 15.035804 0.007297 -2.112024 -12.014363 -2.632161 -2.152849 -39.042335 -9.374605 2.750976 0.000000 0.000000 0.000000 15.035804 0.007297 -2.112024 -1.015667 -1.088655 -7.719860 0.000000 0.000000 0.000000 -19.682852 -42.508690 -33.424118 12.679170 -85.463138 8.659905 0.000000 0.000000 0.000000 15.035804 0.007297 -2.112024 6.610507 27.783785 18.355799 0.000000 0.000000 0.000000 -38.503156 22.500079 21.084075 3.135951 48.801647 -4.266674 0.000000 0.000000 0.000000 
5.257011 31.422119 -22.948570 0.000000 0.000000 0.000000 42.379558 7.761783 0.260989 -59.216388 -24.760406 74.423804 106.201812 -38.603608 -26.795124 -42.575800 -18.805314 -26.437634 -31.334149 -0.701098 -1.777570 0.000000 0.000000 0.000000 42.379558 7.761783 0.260989 -92.017422 33.075560 -55.656626 113.832322 51.242289 33.246144 -24.439740 5.258995 -14.520272 -35.626912 0.463922 -1.506709 0.000000 0.000000 0.000000 42.379558 7.761783 0.260989 7.154753 -0.751700 -0.155489 14.301010 0.134547 -1.811518 0.000000 0.000000 0.000000 0.000000 0.000000 0.000000 14.301019 0.134549 -1.811518 -10.888951 -2.676975 -2.298656 -39.547349 -9.657591 2.704442 0.000000 0.000000 0.000000 14.301019 0.134549 -1.811518 -1.180479 -0.757296 -8.687518 0.000000 0.000000 0.000000 -20.068556 -41.893020 -35.976959 15.277427 -83.419682 11.324729 0.000000 0.000000 0.000000 14.301019 0.134549 -1.811518 6.868139 27.557426 18.918765 0.000000 0.000000 0.000000 -38.383764 22.922361 20.627900 2.112932 47.130887 -2.168527 0.000000 0.000000 0.000000 
5.257011 31.422119 -22.948570 0.000000 0.000000 0.000000 42.379558 7.761783 0.260989 -59.216388 -24.760406 74.423804 106.201812 -38.603608 -26.795124 -42.575800 -18.805314 -26.437634 -31.334149 -0.701098 -1.777570 0.000000 0.000000 0.000000 42.379558 7.761783 0.260989 -92.017422 33.075560 -55.656626 113.832322 51.242289 33.246144 -24.439740 5.258995 -14.520272 -35.626912 0.463922 -1.506709 0.000000 0.000000 0.000000 42.379558 7.761783 0.260989 7.154753 -0.751700 -0.155489 14.301010 0.134547 -1.811518 0.000000 0.000000 0.000000 0.000000 0.000000 0.000000 14.301019 0.134549 -1.811518 -10.888951 -2.676975 -2.298656 -39.547349 -9.657591 2.704442 0.000000 0.000000 0.000000 14.301019 0.134549 -1.811518 -1.180479 -0.757296 -8.687518 0.000000 0.000000 0.000000 -20.068556 -41.893020 -35.976959 15.277427 -83.419682 11.324729 0.000000 0.000000 0.000000 14.301019 0.134549 -1.811518 6.868139 27.557426 18.918765 0.000000 0.000000 0.000000 -38.383764 22.922361 20.627900 2.112932 47.130887 -2.168527 0.000000 0.000000 0.000000 
5.257011 31.422119 -22.948570 0.000000 0.000000 0.000000 42.379558 7.761783 0.260989 -59.216388 -24.760406 74.423804 106.201812 -38.603608 -26.795124 -42.575800 -18.805314 -26.437634 -31.334149 -0.701098 -1.777570 0.000000 0.000000 0.000000 42.379558 7.761783 0.260989 -92.017422 33.075560 -55.656626 113.832322 51.242289 33.246144 -24.439740 5.258995 -14.520272 -35.626912 0.463922 -1.506709 0.000000 0.000000 0.000000 42.379558 7.761783 0.260989 7.154753 -0.751700 -0.155489 14.301010 0.134547 -1.811518 0.000000 0.000000 0.000000 0.000000 0.000000 0.000000 14.301019 0.134549 -1.811518 -10.888951 -2.676975 -2.298656 -39.547349 -9.657591 2.704442 0.000000 0.000000 0.000000 14.301019 0.134549 -1.811518 -1.180479 -0.757296 -8.687518 0.000000 0.000000 0.000000 -20.068556 -41.893020 -35.976959 15.277427 -83.419682 11.324729 0.000000 0.000000 0.000000 14.301019 0.134549 -1.811518 6.868139 27.557426 18.918765 0.000000 0.000000 0.000000 -38.383764 22.922361 20.627900 2.112932 47.130887 -2.168527 0.000000 0.000000 0.000000 
5.257011 31.422119 -22.948570 0.000000 0.000000 0.000000 42.379558 7.761783 0.260989 -59.216388 -24.760406 74.423804 106.201812 -38.603608 -26.795124 -42.575800 -18.805314 -26.437634 -31.334149 -0.701098 -1.777570 0.000000 0.000000 0.000000 42.379558 7.761783 0.260989 -92.017422 33.075560 -55.656626 113.832322 51.242289 33.246144 -24.439740 5.258995 -14.520272 -35.626912 0.463922 -1.506709 0.000000 0.000000 0.000000 42.379558 7.761783 0.260989 7.154753 -0.751700 -0.155489 14.301010 0.134547 -1.811518 0.000000 0.000000 0.000000 0.000000 0.000000 0.000000 14.301019 0.134549 -1.811518 -10.888951 -2.676975 -2.298656 -39.547349 -9.657591 2.704442 0.000000 0.000000 0.000000 14.301019 0.134549 -1.811518 -1.180479 -0.757296 -8.687518 0.000000 0.000000 0.000000 -20.068556 -41.893020 -35.976959 15.277427 -83.419682 11.324729 0.000000 0.000000 0.000000 14.301019 0.134549 -1.811518 6.868139 27.557426 18.918765 0.000000 0.000000 0.000000 -38.383764 22.922361 20.627900 2.112932 47.130887 -2.168527 0.000000 0.000000 0.000000 
